<?xml version="1.0" encoding="UTF-8"?><svg id="uuid-b74f8968-09ee-40ae-919e-827f3b5232e5" xmlns="http://www.w3.org/2000/svg" width="24.56" height="16" fill-opacity="0.05" viewBox="0 0 24.56 16"><path d="M22.03,15.81c-.07.05-.12.12-.15.19h.62l.75-.49-.1.49h.43l.17-.81.68-.45s.08-.03.12-.05v-.47c-.12.04-.24.1-.35.17l-2.17,1.42Z"/><polygon points="24.56 16 24.56 15.92 24.44 16 24.56 16"/><path d="M19.25,13.71c-.06-.09-.19-.12-.28-.06-.04.03-.07.07-.08.11l-.66,2.23h.43l.14-.48,1.05-.15.38.59c-.12-.01-.24,0-.36.04h.87l-1.49-2.29ZM18.91,15.09l.23-.78.44.68-.67.1Z"/><path d="M21.26,5.38c-.04.37.22.7.59.74.37.04.7-.22.74-.59.04-.37-.22-.7-.59-.74-.37-.04-.7.22-.74.59ZM22.21,5.49c-.02.16-.16.27-.32.25-.16-.02-.27-.16-.25-.32.02-.16.16-.27.32-.25.16.02.27.16.25.32Z"/><path d="M14.34,10.9l3.51.87c.57.14,1.15-.21,1.29-.78l.46-1.86c.14-.57-.21-1.15-.78-1.29l-2.89-.72c-.57-.14-1.15.21-1.29.78l-.77,3.1c-.14.57.21,1.15.78,1.29l2.27.56c.11.03.23-.04.26-.16.03-.11-.04-.23-.16-.26l-2.27-.56c-.34-.09-.55-.43-.47-.77l.05-.21ZM15.06,8.01c.08-.34.43-.55.77-.47l2.89.72c.34.08.55.43.47.77l-.46,1.86c-.08.34-.43.55-.77.47l-3.51-.87.62-2.48Z"/><path d="M18.16,10.53l.21-.83c.06-.24.01-.49-.13-.69-.27-.39-.8-.48-1.18-.22-.11-.22-.31-.37-.55-.43-.46-.11-.92.16-1.03.62l-.21.83c-.03.11.04.23.16.26s.23-.04.26-.16l.21-.83c.06-.23.29-.37.52-.31.23.06.37.29.31.52l-.21.83c-.03.11.04.23.16.26s.23-.04.26-.16l.21-.83c.06-.23.29-.37.52-.31s.37.29.31.52l-.21.83c-.03.11.04.23.16.26.11.03.23-.04.26-.16Z"/><path d="M22.51,0h-.62s-.03.05-.03.07l-.39,1.89-.92.61c-.1.06-.12.19-.06.29.06.1.19.12.29.06l.92-.61,1.89.39c.11.02.22,0,.32-.06l.65-.44v-.51l-.88.59-1.48-.3,1.74-1.15.62.13v-.43l-.13-.03.13-.08v-.43h-.12l-.98.65.13-.65h-.43l-.2.98-.99.66.3-1.48.24-.16Z"/><path d="M16.06,16v-2.99c.01-.07-.03-.13-.09-.15l-.44-.13c-.08-.02-.17.02-.19.1l-.04.15c-.05.16-.22.25-.38.2-.08-.02-.14-.08-.18-.15-.04-.08-.05-.16-.03-.25l.04-.14c.02-.08-.02-.17-.1-.19l-.58-.18c-.08-.02-.17.02-.19.1l-1.1,3.62h.32l.36-1.19c.4.12.83-.1.95-.51.12-.4-.1-.83-.51-.95l.22-.73.29.09c-.04.16-.03.33.05.47.08.14.21.25.36.29.32.09.65-.09.75-.41l.15.04-.54,1.77c-.37-.2-.83-.06-1.04.31-.15.27-.11.59.06.82h.58s-.07,0-.1-.01c-.24-.07-.38-.33-.31-.57.07-.24.33-.38.57-.31.05.02.1.04.14.07l-.25.82h.32l.6-1.95v1.95s.3,0,.3,0ZM14.12,14.21c-.07.24-.33.38-.57.3l.27-.88c.24.07.38.33.3.57Z"/><path d="M17.69,1.37c1.18.88,2.84.63,3.71-.54.19-.26.32-.54.41-.83h-.43c-.07.2-.17.4-.3.58,0,0,0,0,0,0-.04.06-.09.11-.14.17l-.07-.5s-.01-.06-.03-.08l-.11-.16h-.87c-.17.06-.32.16-.42.32-.24-.2-.57-.25-.85-.13l.06-.19h-.43l-.17.57s-.01.06,0,.09l.07.5c-.06-.04-.12-.08-.18-.12-.37-.27-.62-.64-.77-1.04h-.42c.16.53.47,1.01.95,1.37ZM20.06.36c.22-.03.43.12.46.35l.05.36c-.23.17-.5.28-.77.35l-.09-.6c-.03-.22.12-.43.35-.46ZM18.85.54c.22-.03.43.12.46.35l.09.6c-.29.02-.57-.02-.84-.12l-.05-.36c-.03-.22.12-.43.35-.46Z"/><path d="M17.48,13.9c.74-.99,2.15-1.2,3.14-.46.81.61,1.09,1.65.76,2.56h.43c.22-.72.12-1.51-.28-2.15.09-.03.16-.09.16-.19v-1.62c.18-.01.38-.06.56-.12-.06.07-.07.16-.02.24.04.06.11.09.18.07l.66-.1c.34.55.87.91,1.47,1.05v-.41c-.41-.11-.79-.34-1.05-.7l1.05-.17v-.39l-1.44.23,1.2-.91.23.09v-.42l-.09-.04-.23-1.49.32.43v-.75s-.05,0-.07.01l-.4-.54c-.06-.09-.19-.1-.27-.04-.06.04-.09.11-.07.18l.1.66c-.78.48-1.19,1.36-1.08,2.25-.32.24-.69.39-1.09.43v-1.07c.56-.12.92-.68.8-1.25-.06-.26-.21-.49-.42-.64l.18-.41c.05-.11,0-.23-.11-.28-.11-.05-.23,0-.28.11l-.18.41c-.57-.12-1.13.24-1.24.81-.05.26,0,.53.13.76l-2.29,2.11c-.09.08-.09.21-.01.3.08.09.21.09.3.01,0,0,0,0,0,0l1.2-1.1c.21.19.45.35.71.46.26.11.53.18.82.2v1.44c-.11-.14-.24-.26-.39-.37-1.18-.88-2.84-.63-3.71.54-.52.7-.64,1.57-.41,2.35h.42c-.25-.69-.16-1.48.31-2.1ZM23.91,9.37l.18,1.16-.94.71c-.12-.71.17-1.43.76-1.86ZM20.61,11.45c-.2-.09-.39-.21-.56-.36l.78-.72c.12.09.27.15.41.18v1.07c-.21-.02-.43-.08-.64-.17ZM21.2,10.1c-.32-.14-.47-.51-.33-.83s.51-.47.83-.33c.32.14.47.51.33.83-.14.32-.51.47-.83.33Z"/><path d="M12.97.42l1.76.54c.57.17,1.16-.15,1.34-.71,0-.01,0-.03,0-.04v-.2s-.3,0-.3,0v.17c-.11.34-.44.55-.8.52l.21-.69h-.32s-.03,0-.05,0h-.58c.06.09.14.16.25.22.09.05.19.08.29.09l-.09.31-1.61-.49.04-.13h-.32v.04c-.06.16.03.33.19.38Z"/><path d="M22.97,5.58c-.04.37.22.7.59.74.37.04.7-.22.74-.59.04-.37-.22-.7-.59-.74-.37-.04-.7.22-.74.59ZM23.92,5.69c-.02.16-.16.27-.32.25-.16-.02-.27-.16-.25-.32.02-.16.16-.27.32-.25.16.02.27.16.25.32Z"/><path d="M21.55,7.81l1.9.22c.21.02.4-.13.42-.33l.04-.37c.24-.11.45-.27.64-.45v-.57c-.22.31-.52.56-.89.72-.06.03-.11.09-.12.15l-.06.48-.38-.04.07-.57c.01-.1-.06-.2-.17-.21s-.2.06-.21.17l-.07.57-.38-.04.07-.57c.01-.1-.06-.2-.17-.21-.1-.01-.2.06-.21.17l-.07.57-.38-.04.06-.48c0-.07-.02-.14-.08-.18-.6-.43-.92-1.14-.84-1.85.13-1.1,1.17-1.88,2.32-1.75.64.07,1.17.42,1.5.9v-.58c-.38-.37-.88-.63-1.46-.69-1.36-.16-2.59.77-2.74,2.08-.09.81.25,1.62.9,2.13l-.04.37c-.02.21.13.4.33.42Z"/><path d="M2.78,0h-.44l-.75,3c-.14.57.21,1.15.78,1.29l2.27.56c.11.03.23-.04.26-.16.03-.11-.04-.23-.16-.26l-2.27-.56c-.34-.09-.55-.43-.47-.77l.05-.21,3.51.87c.57.14,1.15-.21,1.29-.78l.46-1.86c.11-.45-.09-.89-.45-1.14h-1.47l1.04.26c.34.08.55.43.47.77l-.46,1.86c-.08.34-.43.55-.77.47l-3.51-.87L2.78,0s0,0,0,0Z"/><path d="M5.47,2.43c-.03.11.04.23.16.26.11.03.23-.04.26-.16l.21-.83c.06-.24.01-.49-.13-.69-.27-.39-.8-.48-1.18-.22-.11-.22-.31-.37-.55-.43-.46-.11-.92.16-1.03.62l-.21.83c-.03.11.04.23.16.26.11.03.23-.04.26-.16l.21-.83c.06-.23.29-.37.52-.31s.37.29.31.52l-.21.83c-.03.11.04.23.16.26.11.03.23-.04.26-.16l.21-.83c.06-.23.29-.37.52-.31s.37.29.31.52l-.21.83Z"/><path d="M7.87,11.98c-.32-1.47-1.78-2.41-3.25-2.09l-.21.04c-.11.02-.19.14-.16.25l.15.71-2.23,2.14s0,0,0,0c-.08.08-.08.21,0,.3l.48.49h.01c.24.22.58.28.88.16.34-.14.95-.38,1.59-.26l-.48,1.09c-.21-.05-.41-.13-.59-.23-.1-.06-.23-.02-.29.08-.06.1-.02.23.08.29.58.33,1.27.43,1.92.28h.06c1.43-.36,2.33-1.77,2.04-3.21,0-.01,0-.03,0-.04ZM5.74,14.81c-.21.05-.43.07-.65.06l.49-1.11c.74-.22,1.18-.97,1.02-1.72-.02-.11-.14-.19-.25-.16-.11.02-.19.14-.16.25.12.55-.21,1.09-.75,1.24-.84-.26-1.65.07-2.05.23-.15.06-.31.03-.43-.07l-.32-.33,2.16-2.08c.05-.05.08-.12.06-.2l-.13-.62s.02,0,.03,0c1.25-.25,2.47.55,2.73,1.81.24,1.22-.52,2.42-1.73,2.71Z"/><path d="M3.32,9.67c-.04-.06-.11-.09-.18-.07h0s-.66.1-.66.1c-.52-.84-1.51-1.25-2.47-1.04v.75l.59.78-.19.48-.39-.16v.42l.25.1-.19.48h-.05v.4l.11-.02.71.94c-.28.05-.55.01-.81-.06v.41c.35.08.71.08,1.07-.02l.4.54c.06.09.19.1.27.04.06-.04.09-.11.07-.18l-.1-.66c.86-.53,1.28-1.56,1.03-2.54l.54-.4c.09-.06.1-.19.04-.27ZM.18,9.01c.71-.12,1.43.17,1.86.76l-1.16.18-.71-.94ZM.41,11.65l.19-.48.48.19.23,1.49-.91-1.2ZM1.65,12.47h0s-.18-1.16-.18-1.16l.94-.71c.12.71-.17,1.43-.75,1.86ZM1.23,11.01l-.48-.19.19-.48,1.49-.23-1.2.91Z"/><path d="M0,4.08c.27.38.41.85.35,1.34-.04.32-.17.62-.35.89v.57c.4-.37.67-.86.73-1.41.09-.75-.21-1.46-.73-1.97v.58Z"/><path d="M1.33.81l-1.33-.27v.43l.84.17-.84.56v.51l1.5-1.01c.43-.28.68-.73.74-1.2h-.42c-.05.31-.22.6-.49.81Z"/><path d="M2.37,4.46l-.58-.18c-.08-.02-.17.02-.19.1l-1.12,3.65c-.05.16.04.33.2.38l1.76.54c.57.17,1.16-.15,1.34-.71,0-.01,0-.03,0-.04l.02-3.19c0-.07-.04-.13-.11-.15l-.44-.13c-.08-.02-.17.02-.19.1l-.04.15c-.05.16-.22.25-.38.2-.08-.02-.14-.08-.18-.15-.04-.08-.05-.16-.03-.25l.04-.14c.02-.08-.02-.17-.1-.19ZM1.54,5.64c.24.07.38.33.3.57-.07.24-.33.38-.57.3l.27-.88ZM3.48,8.17c-.11.34-.44.55-.8.52l.81-2.64v2.13ZM2.57,8.01c-.05,0-.1,0-.15-.02-.24-.07-.38-.33-.31-.57.07-.24.33-.38.57-.31.05.02.1.04.14.07l-.25.83ZM2.56,5.47c.32.09.65-.09.75-.41l.15.04-.54,1.77c-.37-.2-.83-.06-1.04.31-.2.37-.06.83.31,1.04.09.05.19.08.29.09l-.09.31-1.61-.49.4-1.32c.4.12.83-.1.95-.51.12-.4-.1-.83-.51-.95l.22-.73.29.09c-.04.16-.03.33.05.47.08.14.21.25.36.29Z"/><path d="M1,15.51c-.06-.1-.19-.12-.29-.06l-.71.47v.08h.64l.29-.19c.1-.06.12-.19.06-.29Z"/><path d="M1.98,14.86c-.44-.66-1.26-.91-1.98-.65v.47c.57-.29,1.27-.14,1.63.41.18.28.24.6.19.9h.42c.05-.38-.03-.78-.26-1.13,0,0,0,0,0,0Z"/><path d="M11.6,15.7l.04-.37c.76-.35,1.28-1.06,1.37-1.87.15-1.31-.83-2.5-2.19-2.66-1.36-.16-2.59.77-2.74,2.08-.09.81.25,1.62.9,2.13l-.04.37c-.02.21.13.4.33.42l1.59.19h.5c.12-.05.21-.16.23-.3ZM10.84,15.61l.07-.57c.01-.1-.06-.2-.17-.21s-.2.06-.21.17l-.07.57-.38-.04.07-.57c.01-.1-.06-.2-.17-.21s-.2.06-.21.17l-.07.57-.38-.04.06-.48c0-.07-.02-.14-.08-.18-.6-.43-.92-1.14-.84-1.85.13-1.1,1.17-1.88,2.32-1.75,1.15.13,1.98,1.14,1.85,2.24-.08.71-.56,1.32-1.24,1.6-.06.03-.11.09-.12.15l-.06.48-.38-.04Z"/><path d="M9.38.49c-.57-.12-1.13.24-1.24.81-.05.26,0,.53.13.76l-2.29,2.11c-.09.08-.09.21-.01.3.08.09.21.09.3.01,0,0,0,0,0,0l1.2-1.1c.21.19.45.35.71.46.26.11.53.18.82.2v1.44c-.11-.14-.24-.26-.39-.37-1.18-.88-2.84-.63-3.71.54-.88,1.18-.63,2.84.54,3.71,1.17.88,2.84.63,3.71-.54.67-.9.68-2.08.13-2.97.09-.03.16-.09.16-.19v-1.62c.18-.01.38-.06.56-.12-.06.07-.07.16-.02.24.04.06.11.09.18.07l.66-.1c.53.86,1.56,1.28,2.54,1.03l.4.54c.06.09.19.1.27.04.06-.04.09-.11.07-.18l-.1-.66c.86-.53,1.28-1.56,1.03-2.54l.54-.4c.09-.06.1-.19.04-.27-.04-.06-.11-.09-.18-.07h0s-.66.1-.66.1c-.53-.86-1.56-1.28-2.54-1.03l-.4-.54c-.06-.09-.19-.1-.27-.04-.06.04-.09.11-.07.18l.1.66c-.78.48-1.19,1.36-1.08,2.25-.32.24-.69.39-1.09.43v-1.07c.56-.12.92-.68.8-1.25-.06-.26-.21-.49-.42-.64l.18-.41c.04-.1,0-.2-.09-.26h-.21s-.07.05-.09.09l-.18.41ZM6.28,9.36l-.05-.36c-.03-.22.12-.43.35-.46.22-.03.43.12.46.35l.09.6c-.29.02-.57-.02-.84-.12ZM7.16,8.32c-.24-.2-.57-.25-.85-.13l.2-.68,1.05-.15.38.59c-.31-.04-.61.1-.78.37ZM6.63,7.09l.23-.78.44.68-.67.1ZM7.53,9.42l-.09-.6c-.03-.22.12-.43.35-.46.22-.03.43.12.46.35l.05.36c-.23.17-.5.28-.77.35ZM8.8,8.58s0,0,0,0c-.04.06-.09.11-.14.17l-.07-.5s-.01-.06-.03-.08l-1.59-2.45c-.06-.09-.19-.12-.28-.06-.04.03-.07.07-.08.11l-.83,2.8s-.01.06,0,.09l.07.5c-.06-.04-.12-.08-.18-.12-.99-.74-1.2-2.15-.46-3.14.74-.99,2.15-1.2,3.14-.46.99.74,1.2,2.15.46,3.14ZM10.84,3.74l1.2-.91.48.19-.19.48-1.49.23ZM11.23,4.07l1.16-.18.71.94c-.71.12-1.43-.17-1.86-.76ZM12.69,3.65l.19-.48.48.19.23,1.49-.91-1.2ZM13.93,4.47h0s-.18-1.16-.18-1.16l.94-.71c.12.71-.17,1.43-.75,1.86ZM14.71,2.1l-1.2.91-.48-.19.19-.48,1.49-.23ZM14.33,1.77l-1.16.18-.71-.94c.71-.12,1.43.17,1.86.76ZM12.86,2.19l-.19.48-.48-.19-.23-1.49.91,1.2ZM11.63,1.37l.18,1.16-.94.71c-.12-.71.17-1.43.76-1.86ZM8.33,3.45c-.2-.09-.39-.21-.56-.36l.78-.72c.12.09.27.15.41.18v1.07c-.21-.02-.43-.08-.64-.17ZM9.75,1.77c-.14.32-.51.47-.83.33-.32-.14-.47-.51-.33-.83s.51-.47.83-.33c.32.14.47.51.33.83Z"/><path d="M4.87,11.56c-.17.04-.28.21-.24.38.04.17.21.28.38.24.17-.04.28-.21.24-.38-.04-.17-.21-.28-.38-.24Z"/><polygon points=".64 0 0 0 0 .43 .64 0"/><path d="M17.15,3.56c-.17.04-.28.21-.24.38.04.17.21.28.38.24.17-.04.28-.21.24-.38s-.21-.28-.38-.24Z"/><path d="M14.26,6.87s0,0,0,0c-.51-.77-1.56-.99-2.33-.47l-2.17,1.42c-.09.06-.16.16-.18.27l-.39,1.89-.92.61c-.1.06-.12.19-.06.29.06.1.19.12.29.06l.92-.61,1.89.39c.11.02.22,0,.32-.06l2.15-1.44c.78-.51.99-1.56.48-2.33ZM9.99,8.16l.99-.65-.3,1.47-.99.66.3-1.48ZM11.4,10.29l-1.48-.3,1.74-1.15,1.46.3-1.72,1.15ZM13.61,8.81l-1.46-.3,1.07-.7c.1-.06.12-.19.06-.29-.06-.1-.19-.12-.29-.06l-1.81,1.2.3-1.46.68-.45c.58-.38,1.36-.23,1.75.36.37.56.24,1.31-.3,1.71Z"/><path d="M12.02,13.73c.04-.37-.22-.7-.59-.74-.37-.04-.7.22-.74.59-.04.37.22.7.59.74.37.04.7-.22.74-.59ZM11.07,13.62c.02-.16.16-.27.32-.25.16.02.27.16.25.32-.02.16-.16.27-.32.25-.16-.02-.27-.16-.25-.32Z"/><path d="M3.55,15.54l1.85.46h1.47c-.1-.07-.2-.12-.32-.15l-2.89-.72c-.57-.14-1.15.21-1.29.78l-.02.1h.44c.09-.34.43-.54.77-.46Z"/><path d="M20.16,4.02s0-.03,0-.04c-.32-1.47-1.78-2.41-3.25-2.09l-.21.04c-.11.02-.19.14-.16.25l.15.71-2.23,2.14s0,0,0,0c-.08.08-.08.21,0,.3l.48.49h.01c.24.22.58.28.88.16.34-.14.95-.38,1.59-.26l-.48,1.09c-.21-.05-.41-.13-.59-.23-.1-.06-.23-.02-.29.08-.06.1-.02.23.08.29.58.33,1.27.43,1.92.28h.06c1.43-.36,2.33-1.77,2.04-3.21ZM18.02,6.81c-.21.05-.43.07-.65.06l.49-1.11c.74-.22,1.18-.97,1.02-1.72-.02-.11-.14-.19-.25-.16-.11.02-.19.14-.16.25.12.55-.21,1.09-.75,1.24-.84-.26-1.65.07-2.05.23-.15.06-.32.03-.43-.07l-.32-.33,2.16-2.08c.05-.05.08-.12.06-.2l-.13-.62s.02,0,.03,0c1.25-.25,2.47.55,2.73,1.81.24,1.22-.52,2.42-1.73,2.71Z"/><path d="M9.65,16h.21s-.01-.02-.02-.02c-.06-.03-.13-.01-.19.02Z"/><path d="M11.37,0h-.5l.3.04c.07,0,.14,0,.2-.04Z"/><path d="M9.72,12.79c-.37-.04-.7.22-.74.59-.04.37.22.7.59.74.37.04.7-.22.74-.59.04-.37-.22-.7-.59-.74ZM9.61,13.74c-.16-.02-.27-.16-.25-.32.02-.16.16-.27.32-.25.16.02.27.16.25.32-.02.16-.16.27-.32.25Z"/></svg>
